<svg width="185px" height="126px" viewBox="0 0 185 126" version="1.1" xmlns="http://www.w3.org/2000/svg" xmlns:xlink="http://www.w3.org/1999/xlink">
    <!-- Generator: Sketch 48.2 (47327) - http://www.bohemiancoding.com/sketch -->
    <desc>Created with Sketch.</desc>
    <defs></defs>
    <g id="Page-1" stroke="none" stroke-width="1" fill="none" fill-rule="evenodd">
        <g id="Homepage" transform="translate(-205.000000, -1398.000000)" stroke="#00ACE4" stroke-width="2">
            <g id="What-Set-Us-Apart-" transform="translate(0.000000, 1049.000000)">
                <g id="Page-1" transform="translate(206.000000, 344.000000)">
                    <path d="M183,92.5 C183,113.210997 166.212737,130 145.498879,130 C124.787263,130 108,113.210997 108,92.5 C108,71.7890032 124.787263,55 145.498879,55 C166.212737,55 183,71.7890032 183,92.5 Z" id="Stroke-3"></path>
                    <path d="M75,92.5 C75,113.210997 58.2109968,130 37.5,130 C16.7890032,130 0,113.210997 0,92.5 C0,71.7890032 16.7890032,55 37.5,55 C58.2109968,55 75,71.7890032 75,92.5 Z" id="Stroke-5"></path>
                    <path d="M17,93 C17,81.4020553 26.4020553,72 38,72" id="Stroke-7"></path>
                    <path d="M124,93 C124,81.4020553 133.402055,72 145,72" id="Stroke-9"></path>
                    <path d="M110,108 L70,108" id="Stroke-11"></path>
                    <path d="M80,37 L102,37" id="Stroke-13"></path>
                    <path d="M112,77 L72,77" id="Stroke-15"></path>
                    <path d="M6,72 L36.2671791,30.0879811 C42.2453589,21.8110532 53.2309601,18.1110257 63.4417357,20.9404585 C74.1156254,23.8975505 81.3228388,33.2480724 80.9888622,43.701487 L80.4433673,60.8392272" id="Stroke-17"></path>
                    <path d="M49,21.0247321 L55.8642636,11.0192946 C58.6884567,6.90086085 63.8808888,5.06047082 68.7058355,6.46769588 C73.7485513,7.93776352 77.153462,12.5881149 76.994672,17.7883389 L76.5500601,30" id="Stroke-19"></path>
                    <path d="M134,21.0247321 L127.133988,11.0192946 C124.310009,6.90086085 119.11797,5.06047082 114.293388,6.46769588 C109.253323,7.93776352 105.84867,12.5881149 106.005179,17.7883389 L106.449758,30" id="Stroke-21"></path>
                    <path d="M177,72 L146.733661,30.0879811 C140.755647,21.8110532 129.770351,18.1110257 119.559858,20.9404585 C108.886265,23.8975505 101.679252,33.2480724 102.010992,43.701487 L102.558699,60.8392272" id="Stroke-23"></path>
                </g>
            </g>
        </g>
    </g>
</svg>
