<svg width="169px" height="120px" viewBox="0 0 169 120" version="1.1" xmlns="http://www.w3.org/2000/svg" xmlns:xlink="http://www.w3.org/1999/xlink">
    <!-- Generator: Sketch 48.2 (47327) - http://www.bohemiancoding.com/sketch -->
    <desc>Created with Sketch.</desc>
    <defs></defs>
    <g id="Page-1" stroke="none" stroke-width="1" fill="none" fill-rule="evenodd">
        <g id="Homepage" transform="translate(-632.000000, -1403.000000)">
            <g id="What-Set-Us-Apart-" transform="translate(0.000000, 1049.000000)">
                <g id="Page-1" transform="translate(633.000000, 346.000000)">
                    <g id="Group-11" transform="translate(0.000000, 9.000000)">
                        <polygon id="Stroke-2" stroke="#00ACE4" stroke-width="2" points="0.948863636 117.048387 166.051136 117.048387 166.051136 0.833612903 0.948863636 0.833612903"></polygon>
                        <path d="M166.050567,24.7025387 L0.948294318,24.7025387" id="Stroke-4" stroke="#00ACE4" stroke-width="2"></path>
                        <path d="M19.1194125,16.0042258 C17.7530489,17.3745484 15.5365034,17.3745484 14.1701398,16.0042258 C12.8018784,14.632 12.8018784,12.4090323 14.1701398,11.0387097 C15.5365034,9.66648387 17.7530489,9.66648387 19.1194125,11.0387097 C20.4876739,12.4090323 20.4876739,14.632 19.1194125,16.0042258" id="Fill-5" fill="#00ACE4"></path>
                        <path d="M31.276633,16.0042258 C29.9102693,17.3745484 27.6937239,17.3745484 26.3273602,16.0042258 C24.9590989,14.632 24.9590989,12.4090323 26.3273602,11.0387097 C27.6937239,9.66648387 29.9102693,9.66648387 31.276633,11.0387097 C32.6448943,12.4090323 32.6448943,14.632 31.276633,16.0042258" id="Fill-6" fill="#00ACE4"></path>
                        <path d="M43.4359409,16.0042258 C42.0676795,17.3745484 39.8511341,17.3745484 38.4847705,16.0042258 C37.1165091,14.632 37.1165091,12.4090323 38.4847705,11.0387097 C39.8511341,9.66648387 42.0676795,9.66648387 43.4359409,11.0387097 C44.8023045,12.4090323 44.8023045,14.632 43.4359409,16.0042258" id="Fill-7" fill="#00ACE4"></path>
                        <polyline id="Stroke-8" stroke="#00ACE4" stroke-width="2" points="57.8522159 84.9021419 44.0310682 71.0409484 57.8522159 57.1797548"></polyline>
                        <polyline id="Stroke-9" stroke="#00ACE4" stroke-width="2" points="99.4410989 57.1789935 113.262247 71.0401871 99.4410989 84.9013806"></polyline>
                        <path d="M91.4072602,38.6840161 L67.3687489,104.231113" id="Stroke-10" stroke="#00ACE4" stroke-width="2"></path>
                    </g>
                </g>
            </g>
        </g>
    </g>
</svg>
