<svg width="175px" height="145px" viewBox="0 0 175 145" version="1.1" xmlns="http://www.w3.org/2000/svg" xmlns:xlink="http://www.w3.org/1999/xlink">
    <!-- Generator: Sketch 48.2 (47327) - http://www.bohemiancoding.com/sketch -->
    <desc>Created with Sketch.</desc>
    <defs></defs>
    <g id="Page-1" stroke="none" stroke-width="1" fill="none" fill-rule="evenodd">
        <g id="Homepage" transform="translate(-1042.000000, -1386.000000)">
            <g id="What-Set-Us-Apart-" transform="translate(0.000000, 1049.000000)">
                <g id="Page-1" transform="translate(1043.000000, 330.000000)">
                    <g id="Group-16" transform="translate(0.000000, 8.000000)">
                        <polyline id="Stroke-2" stroke="#00ACE4" stroke-width="2" points="111.057477 93.3003111 111.057477 141.949117 82.0568182 119.935172 0.988636364 119.935172 0.988636364 38.4173111 49.1016136 38.4173111"></polyline>
                        <polygon id="Stroke-4" stroke="#00ACE4" stroke-width="2" points="62.2840909 104.306494 91.28475 82.29255 172.352932 82.29255 172.352932 0.774688889 62.2840909 0.774688889"></polygon>
                        <path d="M21.8775341,81.7606417 C20.4538977,83.1826139 18.1444432,83.1826139 16.7208068,81.7606417 C15.2951932,80.3406417 15.2951932,78.0351139 16.7208068,76.6151139 C18.1444432,75.1931417 20.4538977,75.1931417 21.8775341,76.6151139 C23.3031477,78.0351139 23.3031477,80.3406417 21.8775341,81.7606417" id="Fill-6" fill="#00ACE4"></path>
                        <path d="M29.3876114,81.7606417 C27.9619977,80.3406417 27.9619977,78.0351139 29.3876114,76.6151139 C30.8112477,75.1931417 33.1207023,75.1931417 34.5443386,76.6151139 C35.9699523,78.0351139 35.9699523,80.3406417 34.5443386,81.7606417 C33.1207023,83.1826139 30.8112477,83.1826139 29.3876114,81.7606417 Z" id="Fill-8" fill="#00ACE4"></path>
                        <path d="M42.0544159,81.7606417 C40.6288023,80.3406417 40.6288023,78.0351139 42.0544159,76.6151139 C43.4780523,75.1931417 45.7875068,75.1931417 47.2131205,76.6151139 C48.6367568,78.0351139 48.6367568,80.3406417 47.2131205,81.7606417 C45.7875068,83.1826139 43.4780523,83.1826139 42.0544159,81.7606417 Z" id="Fill-10" fill="#00ACE4"></path>
                        <path d="M105.930805,30.4684667 C105.930805,27.1117444 107.081577,24.0212722 109.011395,21.5717722 C111.656986,18.2130778 115.767736,16.0534944 120.382691,16.0534944 C128.362964,16.0534944 134.8326,22.5066056 134.8326,30.4684667 C134.8326,38.4303278 128.362964,44.8834389 120.382691,44.8834389 L120.382691,58.1288833" id="Stroke-12" stroke="#00ACE4" stroke-width="2"></path>
                        <path d="M122.961648,69.5190583 C121.536034,70.9410306 119.22658,70.9410306 117.802943,69.5190583 C116.37733,68.0990583 116.37733,65.7935306 117.802943,64.3735306 C119.22658,62.9515583 121.536034,62.9515583 122.961648,64.3735306 C124.385284,65.7935306 124.385284,68.0990583 122.961648,69.5190583" id="Fill-14" fill="#00ACE4"></path>
                    </g>
                </g>
            </g>
        </g>
    </g>
</svg>
